<svg xmlns="http://www.w3.org/2000/svg" xmlns:xlink="http://www.w3.org/1999/xlink" width="500" zoomAndPan="magnify" viewBox="0 0 375 374.999991" height="500" preserveAspectRatio="xMidYMid meet" version="1.0"><defs><filter x="0%" y="0%" width="100%" height="100%" id="e47800bdb9"><feColorMatrix values="0 0 0 0 1 0 0 0 0 1 0 0 0 0 1 0 0 0 1 0" color-interpolation-filters="sRGB"/></filter><g/><mask id="78e0ff411c"><g filter="url(#e47800bdb9)"><rect x="-37.5" width="450" fill="#000000" y="-37.499999" height="449.999989" fill-opacity="0.86"/></g></mask><clipPath id="8661245c2f"><path d="M 0.644531 0.421875 L 65.144531 0.421875 L 65.144531 64.921875 L 0.644531 64.921875 Z M 0.644531 0.421875 " clip-rule="nonzero"/></clipPath><clipPath id="802e271855"><rect x="0" width="66" y="0" height="66"/></clipPath><mask id="28f868811d"><g filter="url(#e47800bdb9)"><rect x="-37.5" width="450" fill="#000000" y="-37.499999" height="449.999989" fill-opacity="0.81"/></g></mask><clipPath id="b37bf9a20f"><path d="M 36 0.121094 L 47 0.121094 L 47 12 L 36 12 Z M 36 0.121094 " clip-rule="nonzero"/></clipPath><clipPath id="6174d4eb66"><path d="M 50 0.121094 L 62 0.121094 L 62 12 L 50 12 Z M 50 0.121094 " clip-rule="nonzero"/></clipPath><clipPath id="2896602f0a"><path d="M 72 0.121094 L 82 0.121094 L 82 12 L 72 12 Z M 72 0.121094 " clip-rule="nonzero"/></clipPath><clipPath id="f88c179c67"><path d="M 84 0.121094 L 95 0.121094 L 95 12 L 84 12 Z M 84 0.121094 " clip-rule="nonzero"/></clipPath><clipPath id="5c7af35925"><path d="M 99 0.121094 L 108 0.121094 L 108 12 L 99 12 Z M 99 0.121094 " clip-rule="nonzero"/></clipPath><clipPath id="e6255f8ecc"><path d="M 112 0.121094 L 120 0.121094 L 120 12 L 112 12 Z M 112 0.121094 " clip-rule="nonzero"/></clipPath><clipPath id="a838dbcae1"><path d="M 123 0.121094 L 132 0.121094 L 132 12 L 123 12 Z M 123 0.121094 " clip-rule="nonzero"/></clipPath><clipPath id="e5caf3d864"><path d="M 135 0.121094 L 144 0.121094 L 144 12 L 135 12 Z M 135 0.121094 " clip-rule="nonzero"/></clipPath><clipPath id="fe2d1e4bc1"><path d="M 147 0.121094 L 157 0.121094 L 157 12 L 147 12 Z M 147 0.121094 " clip-rule="nonzero"/></clipPath><clipPath id="d9b2f2e156"><path d="M 160 0.121094 L 169 0.121094 L 169 12 L 160 12 Z M 160 0.121094 " clip-rule="nonzero"/></clipPath><clipPath id="35b8aa833a"><path d="M 171 0.121094 L 181 0.121094 L 181 12 L 171 12 Z M 171 0.121094 " clip-rule="nonzero"/></clipPath><clipPath id="de699a0159"><path d="M 184 0.121094 L 187 0.121094 L 187 12 L 184 12 Z M 184 0.121094 " clip-rule="nonzero"/></clipPath><clipPath id="5c73cbbb8a"><path d="M 190 0.121094 L 201 0.121094 L 201 12 L 190 12 Z M 190 0.121094 " clip-rule="nonzero"/></clipPath><clipPath id="136f33fb94"><path d="M 205 0.121094 L 214 0.121094 L 214 12 L 205 12 Z M 205 0.121094 " clip-rule="nonzero"/></clipPath><clipPath id="f0b41f3840"><rect x="0" width="219" y="0" height="15"/></clipPath></defs><g mask="url(#78e0ff411c)"><g transform="matrix(1, 0, 0, 1, 47, 221)"><g clip-path="url(#802e271855)"><path fill="#737373" d="M 16.8125 60.730469 C 18.664062 61.804688 20.628906 62.695312 22.695312 63.382812 L 22.695312 25.109375 L 16.8125 34.324219 Z M 16.8125 60.730469 " fill-opacity="1" fill-rule="nonzero"/><path fill="#737373" d="M 43.238281 25.101562 L 43.238281 63.386719 C 45.300781 62.695312 47.273438 61.804688 49.125 60.730469 L 49.125 34.324219 Z M 43.238281 25.101562 " fill-opacity="1" fill-rule="nonzero"/><g clip-path="url(#8661245c2f)"><path fill="#ffffff" d="M 34.460938 0.441406 C 49.777344 1.222656 61.953125 13.882812 61.953125 29.390625 C 61.953125 39.414062 56.863281 48.253906 49.125 53.460938 C 47.300781 54.6875 45.324219 55.714844 43.234375 56.507812 C 42.285156 56.871094 41.3125 57.179688 40.316406 57.4375 L 40.316406 20.527344 L 34.433594 11.316406 L 34.433594 58.34375 C 33.949219 58.367188 33.464844 58.378906 32.972656 58.378906 C 32.480469 58.378906 31.992188 58.367188 31.503906 58.34375 L 31.503906 11.316406 L 25.621094 20.527344 L 25.621094 57.433594 C 24.625 57.175781 23.652344 56.863281 22.695312 56.5 C 20.605469 55.710938 18.636719 54.6875 16.8125 53.457031 C 9.074219 48.253906 3.984375 39.414062 3.984375 29.390625 C 3.984375 13.882812 16.167969 1.222656 31.480469 0.441406 C 14.320312 1.21875 0.644531 15.375 0.644531 32.726562 C 0.644531 44.691406 7.144531 55.140625 16.8125 60.730469 C 18.664062 61.804688 20.628906 62.695312 22.695312 63.382812 C 23.652344 63.703125 24.628906 63.984375 25.621094 64.214844 C 27.523438 64.652344 29.492188 64.929688 31.503906 65.019531 C 31.992188 65.042969 32.480469 65.054688 32.972656 65.054688 C 33.457031 65.054688 33.945312 65.042969 34.433594 65.019531 C 36.445312 64.929688 38.410156 64.660156 40.316406 64.214844 C 41.308594 63.984375 42.28125 63.710938 43.238281 63.386719 C 45.300781 62.695312 47.273438 61.804688 49.125 60.730469 C 58.785156 55.144531 65.292969 44.699219 65.292969 32.726562 C 65.292969 15.375 51.617188 1.21875 34.460938 0.441406 Z M 34.460938 0.441406 " fill-opacity="1" fill-rule="nonzero"/></g></g></g></g><g mask="url(#28f868811d)"><g transform="matrix(1, 0, 0, 1, 85, 255)"><g clip-path="url(#f0b41f3840)"><g fill="#ffffff" fill-opacity="1"><g transform="translate(1.351615, 11.445627)"><g/></g></g><g fill="#ffffff" fill-opacity="1"><g transform="translate(8.314902, 11.445627)"><g/></g></g><g fill="#ffffff" fill-opacity="1"><g transform="translate(15.27819, 11.445627)"><g/></g></g><g fill="#ffffff" fill-opacity="1"><g transform="translate(22.241477, 11.445627)"><g/></g></g><g fill="#ffffff" fill-opacity="1"><g transform="translate(29.204765, 11.445627)"><g/></g></g><g clip-path="url(#b37bf9a20f)"><g fill="#ffffff" fill-opacity="1"><g transform="translate(36.179738, 11.445627)"><g><path d="M 5.59375 0.1875 C 4.613281 0.1875 3.75 -0.0351562 3 -0.484375 C 2.257812 -0.929688 1.6875 -1.578125 1.28125 -2.421875 C 0.875 -3.265625 0.671875 -4.269531 0.671875 -5.4375 C 0.671875 -6.59375 0.875 -7.585938 1.28125 -8.421875 C 1.695312 -9.265625 2.273438 -9.910156 3.015625 -10.359375 C 3.753906 -10.816406 4.617188 -11.046875 5.609375 -11.046875 C 6.609375 -11.046875 7.476562 -10.820312 8.21875 -10.375 C 8.957031 -9.925781 9.53125 -9.28125 9.9375 -8.4375 C 10.351562 -7.601562 10.5625 -6.601562 10.5625 -5.4375 C 10.5625 -4.28125 10.351562 -3.28125 9.9375 -2.4375 C 9.53125 -1.59375 8.953125 -0.941406 8.203125 -0.484375 C 7.460938 -0.0351562 6.59375 0.1875 5.59375 0.1875 Z M 5.609375 -2.0625 C 6.316406 -2.0625 6.882812 -2.34375 7.3125 -2.90625 C 7.738281 -3.476562 7.953125 -4.320312 7.953125 -5.4375 C 7.953125 -6.445312 7.753906 -7.257812 7.359375 -7.875 C 6.960938 -8.488281 6.378906 -8.796875 5.609375 -8.796875 C 4.898438 -8.796875 4.332031 -8.507812 3.90625 -7.9375 C 3.488281 -7.375 3.28125 -6.539062 3.28125 -5.4375 C 3.28125 -4.414062 3.476562 -3.597656 3.875 -2.984375 C 4.269531 -2.367188 4.847656 -2.0625 5.609375 -2.0625 Z M 5.609375 -2.0625 "/></g></g></g></g><g clip-path="url(#6174d4eb66)"><g fill="#ffffff" fill-opacity="1"><g transform="translate(50.088764, 11.445627)"><g><path d="M 8.71875 -10.859375 L 11.203125 -10.859375 L 11.75 0 L 9.3125 0 L 9 -5.90625 L 6.78125 0 L 5.625 0 L 3.390625 -5.90625 L 3.109375 0 L 0.65625 0 L 1.1875 -10.859375 L 3.6875 -10.859375 L 6.203125 -4.34375 Z M 8.71875 -10.859375 "/></g></g></g></g><g fill="#ffffff" fill-opacity="1"><g transform="translate(65.16058, 11.445627)"><g/></g></g><g clip-path="url(#2896602f0a)"><g fill="#ffffff" fill-opacity="1"><g transform="translate(72.123866, 11.445627)"><g><path d="M 5.796875 0.203125 C 4.828125 0.203125 3.953125 -0.015625 3.171875 -0.453125 C 2.398438 -0.898438 1.789062 -1.539062 1.34375 -2.375 C 0.894531 -3.21875 0.671875 -4.238281 0.671875 -5.4375 C 0.671875 -6.613281 0.882812 -7.617188 1.3125 -8.453125 C 1.738281 -9.296875 2.332031 -9.9375 3.09375 -10.375 C 3.851562 -10.820312 4.726562 -11.046875 5.71875 -11.046875 C 6.257812 -11.046875 6.800781 -10.960938 7.34375 -10.796875 C 7.894531 -10.628906 8.445312 -10.375 9 -10.03125 L 8.15625 -8.03125 C 7.78125 -8.289062 7.398438 -8.484375 7.015625 -8.609375 C 6.628906 -8.742188 6.238281 -8.8125 5.84375 -8.8125 C 5.09375 -8.8125 4.472656 -8.535156 3.984375 -7.984375 C 3.503906 -7.429688 3.265625 -6.585938 3.265625 -5.453125 C 3.265625 -4.328125 3.503906 -3.476562 3.984375 -2.90625 C 4.472656 -2.34375 5.097656 -2.0625 5.859375 -2.0625 C 6.679688 -2.0625 7.460938 -2.320312 8.203125 -2.84375 L 9.0625 -0.8125 C 8.09375 -0.132812 7.003906 0.203125 5.796875 0.203125 Z M 5.796875 0.203125 "/></g></g></g></g><g clip-path="url(#f88c179c67)"><g fill="#ffffff" fill-opacity="1"><g transform="translate(84.218937, 11.445627)"><g><path d="M 5.59375 0.1875 C 4.613281 0.1875 3.75 -0.0351562 3 -0.484375 C 2.257812 -0.929688 1.6875 -1.578125 1.28125 -2.421875 C 0.875 -3.265625 0.671875 -4.269531 0.671875 -5.4375 C 0.671875 -6.59375 0.875 -7.585938 1.28125 -8.421875 C 1.695312 -9.265625 2.273438 -9.910156 3.015625 -10.359375 C 3.753906 -10.816406 4.617188 -11.046875 5.609375 -11.046875 C 6.609375 -11.046875 7.476562 -10.820312 8.21875 -10.375 C 8.957031 -9.925781 9.53125 -9.28125 9.9375 -8.4375 C 10.351562 -7.601562 10.5625 -6.601562 10.5625 -5.4375 C 10.5625 -4.28125 10.351562 -3.28125 9.9375 -2.4375 C 9.53125 -1.59375 8.953125 -0.941406 8.203125 -0.484375 C 7.460938 -0.0351562 6.59375 0.1875 5.59375 0.1875 Z M 5.609375 -2.0625 C 6.316406 -2.0625 6.882812 -2.34375 7.3125 -2.90625 C 7.738281 -3.476562 7.953125 -4.320312 7.953125 -5.4375 C 7.953125 -6.445312 7.753906 -7.257812 7.359375 -7.875 C 6.960938 -8.488281 6.378906 -8.796875 5.609375 -8.796875 C 4.898438 -8.796875 4.332031 -8.507812 3.90625 -7.9375 C 3.488281 -7.375 3.28125 -6.539062 3.28125 -5.4375 C 3.28125 -4.414062 3.476562 -3.597656 3.875 -2.984375 C 4.269531 -2.367188 4.847656 -2.0625 5.609375 -2.0625 Z M 5.609375 -2.0625 "/></g></g></g></g><g clip-path="url(#5c7af35925)"><g fill="#ffffff" fill-opacity="1"><g transform="translate(98.127965, 11.445627)"><g><path d="M 3.484375 0 L 1.03125 0 L 1.03125 -10.859375 L 3.171875 -10.859375 L 7.3125 -4.59375 L 7.3125 -10.859375 L 9.78125 -10.859375 L 9.78125 0 L 7.71875 0 L 3.484375 -6.40625 Z M 3.484375 0 "/></g></g></g></g><g clip-path="url(#e6255f8ecc)"><g fill="#ffffff" fill-opacity="1"><g transform="translate(111.602884, 11.445627)"><g><path d="M 4.203125 0.21875 C 2.785156 0.21875 1.539062 -0.0507812 0.46875 -0.59375 L 0.703125 -2.765625 C 1.015625 -2.597656 1.367188 -2.453125 1.765625 -2.328125 C 2.160156 -2.210938 2.554688 -2.125 2.953125 -2.0625 C 3.347656 -2 3.707031 -1.96875 4.03125 -1.96875 C 4.507812 -1.96875 4.90625 -2.039062 5.21875 -2.1875 C 5.539062 -2.332031 5.703125 -2.613281 5.703125 -3.03125 C 5.703125 -3.414062 5.546875 -3.710938 5.234375 -3.921875 C 4.921875 -4.140625 4.472656 -4.351562 3.890625 -4.5625 C 2.867188 -4.863281 2.0625 -5.257812 1.46875 -5.75 C 0.875 -6.238281 0.578125 -6.925781 0.578125 -7.8125 C 0.578125 -8.519531 0.753906 -9.113281 1.109375 -9.59375 C 1.460938 -10.070312 1.941406 -10.429688 2.546875 -10.671875 C 3.148438 -10.921875 3.816406 -11.046875 4.546875 -11.046875 C 5.097656 -11.046875 5.65625 -10.988281 6.21875 -10.875 C 6.78125 -10.769531 7.3125 -10.601562 7.8125 -10.375 L 7.515625 -8.1875 C 6.460938 -8.644531 5.523438 -8.875 4.703125 -8.875 C 4.265625 -8.875 3.90625 -8.800781 3.625 -8.65625 C 3.351562 -8.519531 3.21875 -8.253906 3.21875 -7.859375 C 3.21875 -7.535156 3.351562 -7.269531 3.625 -7.0625 C 3.894531 -6.851562 4.332031 -6.644531 4.9375 -6.4375 C 5.976562 -6.125 6.804688 -5.710938 7.421875 -5.203125 C 8.035156 -4.691406 8.34375 -3.976562 8.34375 -3.0625 C 8.34375 -2.351562 8.160156 -1.753906 7.796875 -1.265625 C 7.429688 -0.785156 6.9375 -0.414062 6.3125 -0.15625 C 5.6875 0.09375 4.984375 0.21875 4.203125 0.21875 Z M 4.203125 0.21875 "/></g></g></g></g><g clip-path="url(#a838dbcae1)"><g fill="#ffffff" fill-opacity="1"><g transform="translate(123.000289, 11.445627)"><g><path d="M 0.3125 -10.859375 L 8.34375 -10.859375 L 8.34375 -8.6875 L 5.5625 -8.6875 L 5.5625 0 L 3.078125 0 L 3.078125 -8.6875 L 0.3125 -8.6875 Z M 0.3125 -10.859375 "/></g></g></g></g><g clip-path="url(#e5caf3d864)"><g fill="#ffffff" fill-opacity="1"><g transform="translate(134.335672, 11.445627)"><g><path d="M 9.4375 0 L 6.640625 0 L 4.53125 -3.40625 L 3.5 -3.40625 L 3.5 0 L 1.03125 0 L 1.03125 -10.859375 L 4.984375 -10.859375 C 6.304688 -10.859375 7.347656 -10.535156 8.109375 -9.890625 C 8.867188 -9.242188 9.25 -8.320312 9.25 -7.125 C 9.25 -6.300781 9.0625 -5.601562 8.6875 -5.03125 C 8.3125 -4.457031 7.773438 -4.035156 7.078125 -3.765625 Z M 4.921875 -8.75 L 3.5 -8.75 L 3.5 -5.46875 L 4.90625 -5.46875 C 5.476562 -5.46875 5.929688 -5.597656 6.265625 -5.859375 C 6.597656 -6.117188 6.765625 -6.535156 6.765625 -7.109375 C 6.765625 -7.640625 6.597656 -8.046875 6.265625 -8.328125 C 5.941406 -8.609375 5.492188 -8.75 4.921875 -8.75 Z M 4.921875 -8.75 "/></g></g></g></g><g clip-path="url(#fe2d1e4bc1)"><g fill="#ffffff" fill-opacity="1"><g transform="translate(146.72532, 11.445627)"><g><path d="M 5.078125 0.1875 C 4.191406 0.1875 3.429688 0.0195312 2.796875 -0.3125 C 2.160156 -0.65625 1.671875 -1.140625 1.328125 -1.765625 C 0.984375 -2.390625 0.8125 -3.128906 0.8125 -3.984375 L 0.8125 -10.859375 L 3.3125 -10.859375 L 3.3125 -4 C 3.3125 -3.34375 3.460938 -2.832031 3.765625 -2.46875 C 4.078125 -2.113281 4.515625 -1.9375 5.078125 -1.9375 C 5.640625 -1.9375 6.078125 -2.113281 6.390625 -2.46875 C 6.710938 -2.832031 6.875 -3.34375 6.875 -4 L 6.875 -10.859375 L 9.359375 -10.859375 L 9.359375 -3.984375 C 9.359375 -2.703125 8.976562 -1.6875 8.21875 -0.9375 C 7.457031 -0.1875 6.410156 0.1875 5.078125 0.1875 Z M 5.078125 0.1875 "/></g></g></g></g><g clip-path="url(#d9b2f2e156)"><g fill="#ffffff" fill-opacity="1"><g transform="translate(159.564571, 11.445627)"><g><path d="M 5.796875 0.203125 C 4.828125 0.203125 3.953125 -0.015625 3.171875 -0.453125 C 2.398438 -0.898438 1.789062 -1.539062 1.34375 -2.375 C 0.894531 -3.21875 0.671875 -4.238281 0.671875 -5.4375 C 0.671875 -6.613281 0.882812 -7.617188 1.3125 -8.453125 C 1.738281 -9.296875 2.332031 -9.9375 3.09375 -10.375 C 3.851562 -10.820312 4.726562 -11.046875 5.71875 -11.046875 C 6.257812 -11.046875 6.800781 -10.960938 7.34375 -10.796875 C 7.894531 -10.628906 8.445312 -10.375 9 -10.03125 L 8.15625 -8.03125 C 7.78125 -8.289062 7.398438 -8.484375 7.015625 -8.609375 C 6.628906 -8.742188 6.238281 -8.8125 5.84375 -8.8125 C 5.09375 -8.8125 4.472656 -8.535156 3.984375 -7.984375 C 3.503906 -7.429688 3.265625 -6.585938 3.265625 -5.453125 C 3.265625 -4.328125 3.503906 -3.476562 3.984375 -2.90625 C 4.472656 -2.34375 5.097656 -2.0625 5.859375 -2.0625 C 6.679688 -2.0625 7.460938 -2.320312 8.203125 -2.84375 L 9.0625 -0.8125 C 8.09375 -0.132812 7.003906 0.203125 5.796875 0.203125 Z M 5.796875 0.203125 "/></g></g></g></g><g clip-path="url(#35b8aa833a)"><g fill="#ffffff" fill-opacity="1"><g transform="translate(171.659637, 11.445627)"><g><path d="M 0.3125 -10.859375 L 8.34375 -10.859375 L 8.34375 -8.6875 L 5.5625 -8.6875 L 5.5625 0 L 3.078125 0 L 3.078125 -8.6875 L 0.3125 -8.6875 Z M 0.3125 -10.859375 "/></g></g></g></g><g clip-path="url(#de699a0159)"><g fill="#ffffff" fill-opacity="1"><g transform="translate(182.99502, 11.445627)"><g><path d="M 3.515625 0 L 1.03125 0 L 1.03125 -10.859375 L 3.515625 -10.859375 Z M 3.515625 0 "/></g></g></g></g><g clip-path="url(#5c73cbbb8a)"><g fill="#ffffff" fill-opacity="1"><g transform="translate(190.221872, 11.445627)"><g><path d="M 5.59375 0.1875 C 4.613281 0.1875 3.75 -0.0351562 3 -0.484375 C 2.257812 -0.929688 1.6875 -1.578125 1.28125 -2.421875 C 0.875 -3.265625 0.671875 -4.269531 0.671875 -5.4375 C 0.671875 -6.59375 0.875 -7.585938 1.28125 -8.421875 C 1.695312 -9.265625 2.273438 -9.910156 3.015625 -10.359375 C 3.753906 -10.816406 4.617188 -11.046875 5.609375 -11.046875 C 6.609375 -11.046875 7.476562 -10.820312 8.21875 -10.375 C 8.957031 -9.925781 9.53125 -9.28125 9.9375 -8.4375 C 10.351562 -7.601562 10.5625 -6.601562 10.5625 -5.4375 C 10.5625 -4.28125 10.351562 -3.28125 9.9375 -2.4375 C 9.53125 -1.59375 8.953125 -0.941406 8.203125 -0.484375 C 7.460938 -0.0351562 6.59375 0.1875 5.59375 0.1875 Z M 5.609375 -2.0625 C 6.316406 -2.0625 6.882812 -2.34375 7.3125 -2.90625 C 7.738281 -3.476562 7.953125 -4.320312 7.953125 -5.4375 C 7.953125 -6.445312 7.753906 -7.257812 7.359375 -7.875 C 6.960938 -8.488281 6.378906 -8.796875 5.609375 -8.796875 C 4.898438 -8.796875 4.332031 -8.507812 3.90625 -7.9375 C 3.488281 -7.375 3.28125 -6.539062 3.28125 -5.4375 C 3.28125 -4.414062 3.476562 -3.597656 3.875 -2.984375 C 4.269531 -2.367188 4.847656 -2.0625 5.609375 -2.0625 Z M 5.609375 -2.0625 "/></g></g></g></g><g clip-path="url(#136f33fb94)"><g fill="#ffffff" fill-opacity="1"><g transform="translate(204.130894, 11.445627)"><g><path d="M 3.484375 0 L 1.03125 0 L 1.03125 -10.859375 L 3.171875 -10.859375 L 7.3125 -4.59375 L 7.3125 -10.859375 L 9.78125 -10.859375 L 9.78125 0 L 7.71875 0 L 3.484375 -6.40625 Z M 3.484375 0 "/></g></g></g></g></g></g></g></svg>