<svg xmlns="http://www.w3.org/2000/svg" xmlns:xlink="http://www.w3.org/1999/xlink" width="150" zoomAndPan="magnify" viewBox="0 0 112.5 37.5" height="50" preserveAspectRatio="xMidYMid meet" version="1.0"><defs><filter x="0%" y="0%" width="100%" height="100%" id="6a709e505b"><feColorMatrix values="0 0 0 0 1 0 0 0 0 1 0 0 0 0 1 0 0 0 1 0" color-interpolation-filters="sRGB"/></filter><g/><clipPath id="a0dc89115d"><path d="M 0.492188 0 L 111.511719 0 L 111.511719 37.007812 L 0.492188 37.007812 Z M 0.492188 0 " clip-rule="nonzero"/></clipPath><mask id="6c66104e82"><g filter="url(#6a709e505b)"><rect x="-11.25" width="135" fill="#000000" y="-3.75" height="45" fill-opacity="0.86"/></g></mask><clipPath id="bc71463d69"><path d="M 2 4 L 4 4 L 4 10.613281 L 2 10.613281 Z M 2 4 " clip-rule="nonzero"/></clipPath><clipPath id="5c0a63a323"><path d="M 7 4 L 8 4 L 8 10.613281 L 7 10.613281 Z M 7 4 " clip-rule="nonzero"/></clipPath><clipPath id="4b6df298d2"><path d="M 0.164062 0.25 L 10.523438 0.25 L 10.523438 10.613281 L 0.164062 10.613281 Z M 0.164062 0.25 " clip-rule="nonzero"/></clipPath><clipPath id="fa79feb649"><rect x="0" width="11" y="0" height="11"/></clipPath><mask id="9218b5cf13"><g filter="url(#6a709e505b)"><rect x="-11.25" width="135" fill="#000000" y="-3.75" height="45" fill-opacity="0.81"/></g></mask><clipPath id="97bd07cc75"><path d="M 0.597656 2 L 1 2 L 1 3 L 0.597656 3 Z M 0.597656 2 " clip-rule="nonzero"/></clipPath><clipPath id="5a2823eb32"><path d="M 5 1 L 8 1 L 8 3.789062 L 5 3.789062 Z M 5 1 " clip-rule="nonzero"/></clipPath><clipPath id="20c1233931"><path d="M 11 1 L 14 1 L 14 3.789062 L 11 3.789062 Z M 11 1 " clip-rule="nonzero"/></clipPath><clipPath id="3e7acd30a3"><path d="M 14 1 L 16 1 L 16 3.789062 L 14 3.789062 Z M 14 1 " clip-rule="nonzero"/></clipPath><clipPath id="a6d60c04b7"><path d="M 18 1 L 21 1 L 21 3.789062 L 18 3.789062 Z M 18 1 " clip-rule="nonzero"/></clipPath><clipPath id="4a1f3b7ddc"><path d="M 24 1 L 27 1 L 27 3.789062 L 24 3.789062 Z M 24 1 " clip-rule="nonzero"/></clipPath><clipPath id="15c14b723f"><path d="M 27 1 L 29 1 L 29 3.789062 L 27 3.789062 Z M 27 1 " clip-rule="nonzero"/></clipPath><clipPath id="1005266ee1"><path d="M 32 1 L 35 1 L 35 3.789062 L 32 3.789062 Z M 32 1 " clip-rule="nonzero"/></clipPath><clipPath id="0be7237b59"><rect x="0" width="38" y="0" height="4"/></clipPath></defs><g clip-path="url(#a0dc89115d)"><path fill="#ffffff" d="M 0.492188 0 L 111.511719 0 L 111.511719 37.007812 L 0.492188 37.007812 Z M 0.492188 0 " fill-opacity="1" fill-rule="nonzero"/><path fill="#ffffff" d="M 0.492188 0 L 111.511719 0 L 111.511719 37.007812 L 0.492188 37.007812 Z M 0.492188 0 " fill-opacity="1" fill-rule="nonzero"/></g><g mask="url(#6c66104e82)"><g transform="matrix(1, 0, 0, 1, 36, 15)"><g clip-path="url(#fa79feb649)"><g clip-path="url(#bc71463d69)"><path fill="#737373" d="M 2.773438 9.984375 C 3.070312 10.15625 3.386719 10.300781 3.722656 10.410156 L 3.722656 4.234375 L 2.773438 5.722656 Z M 2.773438 9.984375 " fill-opacity="1" fill-rule="nonzero"/></g><g clip-path="url(#5c0a63a323)"><path fill="#737373" d="M 7.035156 4.234375 L 7.035156 10.410156 C 7.371094 10.300781 7.6875 10.15625 7.988281 9.984375 L 7.988281 5.722656 Z M 7.035156 4.234375 " fill-opacity="1" fill-rule="nonzero"/></g><g clip-path="url(#4b6df298d2)"><path fill="#ffffff" d="M 5.621094 0.253906 C 8.09375 0.378906 10.058594 2.421875 10.058594 4.925781 C 10.058594 6.542969 9.234375 7.96875 7.988281 8.808594 C 7.691406 9.007812 7.375 9.175781 7.035156 9.300781 C 6.882812 9.359375 6.726562 9.410156 6.566406 9.453125 L 6.566406 3.496094 L 5.617188 2.007812 L 5.617188 9.597656 C 5.539062 9.601562 5.460938 9.605469 5.378906 9.605469 C 5.300781 9.605469 5.222656 9.601562 5.144531 9.597656 L 5.144531 2.007812 L 4.195312 3.496094 L 4.195312 9.453125 C 4.03125 9.410156 3.875 9.359375 3.722656 9.300781 C 3.382812 9.171875 3.066406 9.007812 2.773438 8.808594 C 1.523438 7.96875 0.703125 6.542969 0.703125 4.925781 C 0.703125 2.421875 2.667969 0.378906 5.140625 0.253906 C 2.371094 0.378906 0.164062 2.664062 0.164062 5.464844 C 0.164062 7.394531 1.210938 9.082031 2.773438 9.984375 C 3.070312 10.15625 3.386719 10.300781 3.722656 10.410156 C 3.875 10.464844 4.035156 10.507812 4.195312 10.546875 C 4.5 10.617188 4.820312 10.660156 5.144531 10.675781 C 5.222656 10.679688 5.300781 10.679688 5.378906 10.679688 C 5.457031 10.679688 5.539062 10.679688 5.617188 10.675781 C 5.941406 10.660156 6.257812 10.617188 6.566406 10.546875 C 6.726562 10.507812 6.882812 10.464844 7.035156 10.410156 C 7.371094 10.300781 7.6875 10.15625 7.988281 9.984375 C 9.546875 9.082031 10.59375 7.394531 10.59375 5.464844 C 10.59375 2.664062 8.390625 0.378906 5.621094 0.253906 Z M 5.621094 0.253906 " fill-opacity="1" fill-rule="nonzero"/></g></g></g></g><g mask="url(#9218b5cf13)"><g transform="matrix(1, 0, 0, 1, 43, 18)"><g clip-path="url(#0be7237b59)"><g clip-path="url(#97bd07cc75)"><g fill="#ffffff" fill-opacity="1"><g transform="translate(0.773577, 2.991391)"><g/></g></g></g><g fill="#ffffff" fill-opacity="1"><g transform="translate(1.977601, 2.991391)"><g/></g></g><g fill="#ffffff" fill-opacity="1"><g transform="translate(3.181625, 2.991391)"><g/></g></g><g fill="#ffffff" fill-opacity="1"><g transform="translate(4.38565, 2.991391)"><g/></g></g><g clip-path="url(#5a2823eb32)"><g fill="#ffffff" fill-opacity="1"><g transform="translate(5.591996, 2.991391)"><g><path d="M 0.96875 0.03125 C 0.800781 0.03125 0.648438 -0.00390625 0.515625 -0.078125 C 0.390625 -0.160156 0.289062 -0.273438 0.21875 -0.421875 C 0.144531 -0.566406 0.109375 -0.738281 0.109375 -0.9375 C 0.109375 -1.132812 0.144531 -1.304688 0.21875 -1.453125 C 0.289062 -1.597656 0.390625 -1.707031 0.515625 -1.78125 C 0.648438 -1.863281 0.800781 -1.90625 0.96875 -1.90625 C 1.144531 -1.90625 1.296875 -1.863281 1.421875 -1.78125 C 1.546875 -1.707031 1.644531 -1.597656 1.71875 -1.453125 C 1.789062 -1.316406 1.828125 -1.144531 1.828125 -0.9375 C 1.828125 -0.738281 1.789062 -0.566406 1.71875 -0.421875 C 1.644531 -0.273438 1.546875 -0.160156 1.421875 -0.078125 C 1.296875 -0.00390625 1.144531 0.03125 0.96875 0.03125 Z M 0.96875 -0.359375 C 1.09375 -0.359375 1.191406 -0.40625 1.265625 -0.5 C 1.335938 -0.601562 1.375 -0.75 1.375 -0.9375 C 1.375 -1.113281 1.335938 -1.253906 1.265625 -1.359375 C 1.203125 -1.472656 1.101562 -1.53125 0.96875 -1.53125 C 0.84375 -1.53125 0.742188 -1.476562 0.671875 -1.375 C 0.597656 -1.28125 0.5625 -1.132812 0.5625 -0.9375 C 0.5625 -0.757812 0.597656 -0.617188 0.671875 -0.515625 C 0.742188 -0.410156 0.84375 -0.359375 0.96875 -0.359375 Z M 0.96875 -0.359375 "/></g></g></g></g><g fill="#ffffff" fill-opacity="1"><g transform="translate(7.997366, 2.991391)"><g><path d="M 1.515625 -1.875 L 1.9375 -1.875 L 2.03125 0 L 1.609375 0 L 1.5625 -1.03125 L 1.171875 0 L 0.96875 0 L 0.59375 -1.03125 L 0.53125 0 L 0.109375 0 L 0.203125 -1.875 L 0.640625 -1.875 L 1.078125 -0.75 Z M 1.515625 -1.875 "/></g></g></g><g fill="#ffffff" fill-opacity="1"><g transform="translate(10.603854, 2.991391)"><g/></g></g><g clip-path="url(#20c1233931)"><g fill="#ffffff" fill-opacity="1"><g transform="translate(11.807879, 2.991391)"><g><path d="M 1 0.03125 C 0.832031 0.03125 0.679688 -0.00390625 0.546875 -0.078125 C 0.410156 -0.160156 0.300781 -0.269531 0.21875 -0.40625 C 0.144531 -0.550781 0.109375 -0.726562 0.109375 -0.9375 C 0.109375 -1.144531 0.144531 -1.320312 0.21875 -1.46875 C 0.300781 -1.613281 0.40625 -1.722656 0.53125 -1.796875 C 0.664062 -1.867188 0.816406 -1.90625 0.984375 -1.90625 C 1.078125 -1.90625 1.171875 -1.890625 1.265625 -1.859375 C 1.367188 -1.835938 1.46875 -1.796875 1.5625 -1.734375 L 1.40625 -1.390625 C 1.34375 -1.429688 1.273438 -1.460938 1.203125 -1.484375 C 1.140625 -1.515625 1.078125 -1.53125 1.015625 -1.53125 C 0.878906 -1.53125 0.769531 -1.476562 0.6875 -1.375 C 0.601562 -1.28125 0.5625 -1.132812 0.5625 -0.9375 C 0.5625 -0.75 0.601562 -0.601562 0.6875 -0.5 C 0.769531 -0.40625 0.878906 -0.359375 1.015625 -0.359375 C 1.160156 -0.359375 1.296875 -0.398438 1.421875 -0.484375 L 1.5625 -0.140625 C 1.394531 -0.0234375 1.207031 0.03125 1 0.03125 Z M 1 0.03125 "/></g></g></g></g><g clip-path="url(#3e7acd30a3)"><g fill="#ffffff" fill-opacity="1"><g transform="translate(13.899505, 2.991391)"><g><path d="M 0.96875 0.03125 C 0.800781 0.03125 0.648438 -0.00390625 0.515625 -0.078125 C 0.390625 -0.160156 0.289062 -0.273438 0.21875 -0.421875 C 0.144531 -0.566406 0.109375 -0.738281 0.109375 -0.9375 C 0.109375 -1.132812 0.144531 -1.304688 0.21875 -1.453125 C 0.289062 -1.597656 0.390625 -1.707031 0.515625 -1.78125 C 0.648438 -1.863281 0.800781 -1.90625 0.96875 -1.90625 C 1.144531 -1.90625 1.296875 -1.863281 1.421875 -1.78125 C 1.546875 -1.707031 1.644531 -1.597656 1.71875 -1.453125 C 1.789062 -1.316406 1.828125 -1.144531 1.828125 -0.9375 C 1.828125 -0.738281 1.789062 -0.566406 1.71875 -0.421875 C 1.644531 -0.273438 1.546875 -0.160156 1.421875 -0.078125 C 1.296875 -0.00390625 1.144531 0.03125 0.96875 0.03125 Z M 0.96875 -0.359375 C 1.09375 -0.359375 1.191406 -0.40625 1.265625 -0.5 C 1.335938 -0.601562 1.375 -0.75 1.375 -0.9375 C 1.375 -1.113281 1.335938 -1.253906 1.265625 -1.359375 C 1.203125 -1.472656 1.101562 -1.53125 0.96875 -1.53125 C 0.84375 -1.53125 0.742188 -1.476562 0.671875 -1.375 C 0.597656 -1.28125 0.5625 -1.132812 0.5625 -0.9375 C 0.5625 -0.757812 0.597656 -0.617188 0.671875 -0.515625 C 0.742188 -0.410156 0.84375 -0.359375 0.96875 -0.359375 Z M 0.96875 -0.359375 "/></g></g></g></g><g fill="#ffffff" fill-opacity="1"><g transform="translate(16.304874, 2.991391)"><g><path d="M 0.609375 0 L 0.171875 0 L 0.171875 -1.875 L 0.546875 -1.875 L 1.265625 -0.796875 L 1.265625 -1.875 L 1.6875 -1.875 L 1.6875 0 L 1.328125 0 L 0.609375 -1.109375 Z M 0.609375 0 "/></g></g></g><g clip-path="url(#a6d60c04b7)"><g fill="#ffffff" fill-opacity="1"><g transform="translate(18.63516, 2.991391)"><g><path d="M 0.734375 0.03125 C 0.484375 0.03125 0.265625 -0.015625 0.078125 -0.109375 L 0.125 -0.484375 C 0.175781 -0.453125 0.234375 -0.425781 0.296875 -0.40625 C 0.367188 -0.382812 0.4375 -0.367188 0.5 -0.359375 C 0.570312 -0.347656 0.640625 -0.34375 0.703125 -0.34375 C 0.785156 -0.34375 0.851562 -0.351562 0.90625 -0.375 C 0.957031 -0.40625 0.984375 -0.457031 0.984375 -0.53125 C 0.984375 -0.59375 0.957031 -0.640625 0.90625 -0.671875 C 0.851562 -0.710938 0.773438 -0.753906 0.671875 -0.796875 C 0.492188 -0.847656 0.351562 -0.914062 0.25 -1 C 0.144531 -1.082031 0.09375 -1.203125 0.09375 -1.359375 C 0.09375 -1.472656 0.125 -1.570312 0.1875 -1.65625 C 0.25 -1.738281 0.332031 -1.800781 0.4375 -1.84375 C 0.539062 -1.882812 0.65625 -1.90625 0.78125 -1.90625 C 0.882812 -1.90625 0.984375 -1.894531 1.078125 -1.875 C 1.171875 -1.863281 1.265625 -1.835938 1.359375 -1.796875 L 1.296875 -1.421875 C 1.117188 -1.492188 0.957031 -1.53125 0.8125 -1.53125 C 0.738281 -1.53125 0.675781 -1.519531 0.625 -1.5 C 0.582031 -1.476562 0.5625 -1.429688 0.5625 -1.359375 C 0.5625 -1.304688 0.582031 -1.257812 0.625 -1.21875 C 0.675781 -1.1875 0.753906 -1.148438 0.859375 -1.109375 C 1.035156 -1.054688 1.175781 -0.984375 1.28125 -0.890625 C 1.394531 -0.804688 1.453125 -0.6875 1.453125 -0.53125 C 1.453125 -0.40625 1.414062 -0.300781 1.34375 -0.21875 C 1.28125 -0.132812 1.195312 -0.0703125 1.09375 -0.03125 C 0.988281 0.0078125 0.867188 0.03125 0.734375 0.03125 Z M 0.734375 0.03125 "/></g></g></g></g><g fill="#ffffff" fill-opacity="1"><g transform="translate(20.606114, 2.991391)"><g><path d="M 0.046875 -1.875 L 1.453125 -1.875 L 1.453125 -1.5 L 0.96875 -1.5 L 0.96875 0 L 0.53125 0 L 0.53125 -1.5 L 0.046875 -1.5 Z M 0.046875 -1.875 "/></g></g></g><g fill="#ffffff" fill-opacity="1"><g transform="translate(22.566342, 2.991391)"><g><path d="M 1.640625 0 L 1.15625 0 L 0.78125 -0.59375 L 0.609375 -0.59375 L 0.609375 0 L 0.171875 0 L 0.171875 -1.875 L 0.859375 -1.875 C 1.085938 -1.875 1.269531 -1.816406 1.40625 -1.703125 C 1.539062 -1.597656 1.609375 -1.441406 1.609375 -1.234375 C 1.609375 -1.085938 1.570312 -0.960938 1.5 -0.859375 C 1.4375 -0.765625 1.34375 -0.695312 1.21875 -0.65625 Z M 0.859375 -1.515625 L 0.609375 -1.515625 L 0.609375 -0.953125 L 0.84375 -0.953125 C 0.945312 -0.953125 1.023438 -0.972656 1.078125 -1.015625 C 1.140625 -1.054688 1.171875 -1.128906 1.171875 -1.234375 C 1.171875 -1.328125 1.140625 -1.394531 1.078125 -1.4375 C 1.023438 -1.488281 0.953125 -1.515625 0.859375 -1.515625 Z M 0.859375 -1.515625 "/></g></g></g><g clip-path="url(#4a1f3b7ddc)"><g fill="#ffffff" fill-opacity="1"><g transform="translate(24.708917, 2.991391)"><g><path d="M 0.875 0.03125 C 0.726562 0.03125 0.597656 0.00390625 0.484375 -0.046875 C 0.367188 -0.109375 0.28125 -0.191406 0.21875 -0.296875 C 0.164062 -0.410156 0.140625 -0.539062 0.140625 -0.6875 L 0.140625 -1.875 L 0.578125 -1.875 L 0.578125 -0.6875 C 0.578125 -0.570312 0.601562 -0.484375 0.65625 -0.421875 C 0.707031 -0.359375 0.78125 -0.328125 0.875 -0.328125 C 0.976562 -0.328125 1.054688 -0.359375 1.109375 -0.421875 C 1.160156 -0.484375 1.1875 -0.570312 1.1875 -0.6875 L 1.1875 -1.875 L 1.625 -1.875 L 1.625 -0.6875 C 1.625 -0.46875 1.554688 -0.289062 1.421875 -0.15625 C 1.285156 -0.03125 1.101562 0.03125 0.875 0.03125 Z M 0.875 0.03125 "/></g></g></g></g><g clip-path="url(#15c14b723f)"><g fill="#ffffff" fill-opacity="1"><g transform="translate(26.92926, 2.991391)"><g><path d="M 1 0.03125 C 0.832031 0.03125 0.679688 -0.00390625 0.546875 -0.078125 C 0.410156 -0.160156 0.300781 -0.269531 0.21875 -0.40625 C 0.144531 -0.550781 0.109375 -0.726562 0.109375 -0.9375 C 0.109375 -1.144531 0.144531 -1.320312 0.21875 -1.46875 C 0.300781 -1.613281 0.40625 -1.722656 0.53125 -1.796875 C 0.664062 -1.867188 0.816406 -1.90625 0.984375 -1.90625 C 1.078125 -1.90625 1.171875 -1.890625 1.265625 -1.859375 C 1.367188 -1.835938 1.46875 -1.796875 1.5625 -1.734375 L 1.40625 -1.390625 C 1.34375 -1.429688 1.273438 -1.460938 1.203125 -1.484375 C 1.140625 -1.515625 1.078125 -1.53125 1.015625 -1.53125 C 0.878906 -1.53125 0.769531 -1.476562 0.6875 -1.375 C 0.601562 -1.28125 0.5625 -1.132812 0.5625 -0.9375 C 0.5625 -0.75 0.601562 -0.601562 0.6875 -0.5 C 0.769531 -0.40625 0.878906 -0.359375 1.015625 -0.359375 C 1.160156 -0.359375 1.296875 -0.398438 1.421875 -0.484375 L 1.5625 -0.140625 C 1.394531 -0.0234375 1.207031 0.03125 1 0.03125 Z M 1 0.03125 "/></g></g></g></g><g fill="#ffffff" fill-opacity="1"><g transform="translate(29.020887, 2.991391)"><g><path d="M 0.046875 -1.875 L 1.453125 -1.875 L 1.453125 -1.5 L 0.96875 -1.5 L 0.96875 0 L 0.53125 0 L 0.53125 -1.5 L 0.046875 -1.5 Z M 0.046875 -1.875 "/></g></g></g><g fill="#ffffff" fill-opacity="1"><g transform="translate(30.981115, 2.991391)"><g><path d="M 0.609375 0 L 0.171875 0 L 0.171875 -1.875 L 0.609375 -1.875 Z M 0.609375 0 "/></g></g></g><g clip-path="url(#1005266ee1)"><g fill="#ffffff" fill-opacity="1"><g transform="translate(32.230725, 2.991391)"><g><path d="M 0.96875 0.03125 C 0.800781 0.03125 0.648438 -0.00390625 0.515625 -0.078125 C 0.390625 -0.160156 0.289062 -0.273438 0.21875 -0.421875 C 0.144531 -0.566406 0.109375 -0.738281 0.109375 -0.9375 C 0.109375 -1.132812 0.144531 -1.304688 0.21875 -1.453125 C 0.289062 -1.597656 0.390625 -1.707031 0.515625 -1.78125 C 0.648438 -1.863281 0.800781 -1.90625 0.96875 -1.90625 C 1.144531 -1.90625 1.296875 -1.863281 1.421875 -1.78125 C 1.546875 -1.707031 1.644531 -1.597656 1.71875 -1.453125 C 1.789062 -1.316406 1.828125 -1.144531 1.828125 -0.9375 C 1.828125 -0.738281 1.789062 -0.566406 1.71875 -0.421875 C 1.644531 -0.273438 1.546875 -0.160156 1.421875 -0.078125 C 1.296875 -0.00390625 1.144531 0.03125 0.96875 0.03125 Z M 0.96875 -0.359375 C 1.09375 -0.359375 1.191406 -0.40625 1.265625 -0.5 C 1.335938 -0.601562 1.375 -0.75 1.375 -0.9375 C 1.375 -1.113281 1.335938 -1.253906 1.265625 -1.359375 C 1.203125 -1.472656 1.101562 -1.53125 0.96875 -1.53125 C 0.84375 -1.53125 0.742188 -1.476562 0.671875 -1.375 C 0.597656 -1.28125 0.5625 -1.132812 0.5625 -0.9375 C 0.5625 -0.757812 0.597656 -0.617188 0.671875 -0.515625 C 0.742188 -0.410156 0.84375 -0.359375 0.96875 -0.359375 Z M 0.96875 -0.359375 "/></g></g></g></g><g fill="#ffffff" fill-opacity="1"><g transform="translate(34.636096, 2.991391)"><g><path d="M 0.609375 0 L 0.171875 0 L 0.171875 -1.875 L 0.546875 -1.875 L 1.265625 -0.796875 L 1.265625 -1.875 L 1.6875 -1.875 L 1.6875 0 L 1.328125 0 L 0.609375 -1.109375 Z M 0.609375 0 "/></g></g></g></g></g></g></svg>